<svg xmlns="http://www.w3.org/2000/svg" width="18" height="18" viewBox="0 0 18 18">
    <g id="ic_align_left" transform="translate(-2529.823 -1617.212)">
        <path id="사각형_2239" data-name="사각형 2239" transform="translate(2529.823 1617.212)" style="fill:none" d="M0 0h18v18H0z"/>
        <g id="그룹_2398" data-name="그룹 2398" transform="translate(2530.979 1619.445)">
            <path id="패스_1078" data-name="패스 1078" style="fill:#202020" d="M2539.351 1630.227h-7.937a.563.563 0 0 0 0 1.125h7.937a.563.563 0 0 0 0-1.125z" transform="translate(-2530.851 -1617.818)"/>
            <path id="패스_1079" data-name="패스 1079" style="fill:#202020" d="M2545.964 1626.561h-14.551a.563.563 0 0 0 0 1.125h14.551a.562.562 0 0 0 0-1.125z" transform="translate(-2530.851 -1618.277)"/>
            <path id="패스_1080" data-name="패스 1080" style="fill:#202020" d="M2531.414 1624.019h7.893a.562.562 0 0 0 0-1.125h-7.893a.563.563 0 0 0 0 1.125z" transform="translate(-2530.851 -1618.735)"/>
            <path id="패스_1081" data-name="패스 1081" style="fill:#202020" d="M2531.414 1620.322h14.577a.563.563 0 0 0 0-1.125h-14.577a.563.563 0 0 0 0 1.125z" transform="translate(-2530.851 -1619.197)"/>
        </g>
    </g>
</svg>
