<svg xmlns="http://www.w3.org/2000/svg" width="24" height="24">
    <path data-name="사각형 69" style="fill:none" d="M0 0h24v24H0z"/>
    <path data-name="Icon material-insert-link" d="M5.094 16.011a3.42 3.42 0 0 1 3.417-3.417h4.409V10.5H8.511a5.511 5.511 0 1 0 0 11.023h4.409v-2.095H8.511a3.42 3.42 0 0 1-3.417-3.417zm4.519 1.1h8.818v-2.2H9.614zm9.92-6.614h-4.408v2.094h4.409a3.417 3.417 0 1 1 0 6.834h-4.409v2.094h4.409a5.511 5.511 0 1 0 0-11.023z" transform="translate(-2.2 -4.1)" style="fill:#444"/>
</svg>
