<svg xmlns="http://www.w3.org/2000/svg" width="18" height="18" viewBox="0 0 18 18">
    <path data-name="사각형 2231" style="fill:none" d="M0 0h18v18H0z"/>
    <path data-name="edit_bold" d="M2446.061 1625.62a3.106 3.106 0 0 0 1.886-3.106 3.47 3.47 0 0 0-1.185-2.854 3.866 3.866 0 0 0-3.023-1.187h-5.271a.622.622 0 0 0-.629.616.177.177 0 0 0 0 .039v14.32a.625.625 0 0 0 .589.657h6.085a4.3 4.3 0 0 0 3.265-1.363 4.624 4.624 0 0 0 1.305-3.335 3.709 3.709 0 0 0-3.022-3.787zm-5.516-4.666a.433.433 0 0 1 .308-.127h2.243a2.059 2.059 0 0 1 2.167 1.915v.1a2.125 2.125 0 0 1-2.116 2.091h-2.3a.435.435 0 0 1-.435-.434v-3.234a.439.439 0 0 1 .132-.311zm5.053 9.7a2.347 2.347 0 0 1-1.622.648h-.067l-.141-.008h-2.915a.434.434 0 0 1-.434-.434v-3.66a.433.433 0 0 1 .434-.434h2.984a2.247 2.247 0 0 1 1.643.5 2.281 2.281 0 0 1 .844 1.544c.006.057.011.115.013.172a2.359 2.359 0 0 1-.737 1.67z" transform="translate(-2434.462 -1617.286)" style="fill:#202020"/>
</svg>
