<svg xmlns="http://www.w3.org/2000/svg" width="24" height="24">
    <g transform="translate(-511 -343)">
        <path data-name="사각형 64" transform="translate(511 343)" style="fill:none" d="M0 0h24v24H0z"/>
        <rect data-name="사각형 113" width="22" height="18" rx="2" transform="translate(512 344)" style="fill:#e6e6e6"/>
        <path data-name="패스 258" d="M528.607 347h-.459a.98.98 0 0 1-.969.433h-7.354c-.525 0-.733.008-1.011-.433h-.45c-.052 1.012-.167 2.229-.282 3.4h.583a8.083 8.083 0 0 1 .638-1.548c.322-.536.619-.657 1.642-.657h1.587v8.971c0 1.481-.152 1.653-1.849 1.768v.549h5.532v-.549c-1.741-.115-1.9-.3-1.9-1.768v-8.971h1.733c1.033 0 1.211.133 1.515.614a6.732 6.732 0 0 1 .63 1.588l.583-.055a48.614 48.614 0 0 1-.169-3.342z"/>
    </g>
</svg>
