<svg xmlns="http://www.w3.org/2000/svg" width="14" height="11" viewBox="0 0 14 11">
    <g data-name="패스 1108" style="fill:none">
        <path d="M2528.965 1618.389h-11.47a1.185 1.185 0 0 0-1.264 1.084v8.832a1.185 1.185 0 0 0 1.264 1.084h11.47a1.185 1.185 0 0 0 1.265-1.084v-8.832a1.185 1.185 0 0 0-1.265-1.084z" style="stroke:none" transform="translate(-2516.23 -1618.389)"/>
        <path d="M2517.494 1619.39c-.152 0-.242.067-.264.098v8.803c.022.03.112.098.264.098h11.47c.153 0 .244-.067.266-.098v-8.803c-.022-.031-.113-.099-.265-.099h-11.47m0-1h11.47c.698 0 1.265.485 1.265 1.084v8.832c0 .599-.567 1.084-1.265 1.084h-11.47c-.698 0-1.265-.485-1.265-1.084v-8.832c0-.599.567-1.084 1.264-1.084z" style="fill:#b7b7b7;stroke:none" transform="translate(-2516.23 -1618.389)"/>
    </g>
    <path data-name="패스 1109" d="M2525.09 1620.621h-2.407v5.987a.484.484 0 0 1-.968 0v-5.987h-2.408a.484.484 0 0 1 0-.969h5.783a.484.484 0 0 1 0 .969z" transform="translate(-2515.197 -1617.871)" style="fill:#202020"/>
</svg>
