<svg xmlns="http://www.w3.org/2000/svg" width="24" height="24">
    <path data-name="사각형 118" style="fill:none" d="M0 0h24v24H0z"/>
    <path data-name="패스 260" d="M19.066 4h-.591a1.256 1.256 0 0 1-1.242.555H7.806c-.674 0-.939.011-1.3-.555H5.93c-.067 1.3-.214 2.857-.361 4.358h.747a10.359 10.359 0 0 1 .818-1.985c.413-.686.793-.842 2.1-.842h2.034v11.5c0 1.9-.194 2.119-2.37 2.266v.7h7.09v-.7c-2.232-.147-2.431-.387-2.431-2.266v-11.5h2.222c1.324 0 1.553.171 1.942.787a8.627 8.627 0 0 1 .807 2.036l.747-.071c-.11-1.408-.205-3.188-.209-4.283z"/>
</svg>
