<svg xmlns="http://www.w3.org/2000/svg" width="18" height="18" viewBox="0 0 18 18">
    <g id="edit_under" transform="translate(-2466.837 -1617.417)">
        <path id="사각형_2245" data-name="사각형 2245" transform="translate(2466.837 1617.417)" style="fill:none" d="M0 0h18v18H0z"/>
        <g id="그룹_2409" data-name="그룹 2409" transform="translate(2467.978 1618.535)">
            <path id="패스_1095" data-name="패스 1095" class="cls-2" d="M2483.007 1631.407h-14.594a.563.563 0 1 0 0 1.125h14.594a.563.563 0 0 0 0-1.125z" transform="translate(-2467.851 -1616.787)" style="fill:#202020"/>
            <path id="패스_1096" data-name="패스 1096" class="cls-2" d="M2475.435 1630.809a5.393 5.393 0 0 0 5.388-5.387v-6.448a.563.563 0 0 0-1.125 0v6.448a4.262 4.262 0 0 1-8.524 0v-6.448a.563.563 0 0 0-1.125 0v6.448a5.393 5.393 0 0 0 5.386 5.387z" transform="translate(-2467.577 -1618.411)" style="fill:#202020"/>
        </g>
    </g>
</svg>
